<svg width="12" height="10" viewBox="0 0 12 10" fill="none" xmlns="http://www.w3.org/2000/svg">
<path d="M0.210421 4.79992L2.96928 5.78267L4.04476 9.08829C4.09152 9.31165 4.37208 9.35632 4.55912 9.22231L6.1022 8.0162C6.24248 7.88219 6.47629 7.88219 6.66333 8.0162L9.42217 9.93704C9.60921 10.071 9.88978 9.9817 9.93654 9.75835L11.994 0.377533C12.0407 0.15418 11.8069 -0.0691703 11.5731 0.0201708L0.210421 4.2192C-0.0701402 4.30855 -0.0701402 4.71058 0.210421 4.79992ZM3.90448 5.2913L9.32865 2.11969C9.42217 2.07502 9.51569 2.20903 9.42217 2.2537L4.97996 6.22938C4.83968 6.36339 4.6994 6.54207 4.6994 6.76543L4.55912 7.83752C4.55912 7.97153 4.32532 8.0162 4.27856 7.83752L3.71743 5.87201C3.57715 5.64866 3.67068 5.38064 3.90448 5.2913Z" fill="white"/>
</svg>
