<svg width="17" height="10" viewBox="0 0 17 10" fill="none" xmlns="http://www.w3.org/2000/svg">
<path d="M16.8421 8.9726C16.8421 8.90411 16.7745 8.90411 16.7745 8.83562C16.5039 8.28767 15.8951 7.60274 15.0835 6.84932C14.6776 6.50685 14.4747 6.23288 14.3394 6.09589C14.1365 5.82192 14.1365 5.61644 14.2042 5.34247C14.2718 5.13699 14.5424 4.79452 15.0158 4.17808C15.2864 3.83561 15.4217 3.63014 15.6246 3.42466C16.6392 2.0548 17.1126 1.16438 16.9774 0.753419L16.9097 0.684932C16.8421 0.616439 16.7744 0.547948 16.6392 0.547948C16.5039 0.479454 16.301 0.479454 16.0981 0.547948H13.5278C13.4602 0.547948 13.4601 0.547948 13.3249 0.547948C13.2572 0.547948 13.1896 0.547948 13.1896 0.547948H13.122H13.0543L12.9867 0.616435C12.919 0.684928 12.919 0.684926 12.919 0.753419C12.6485 1.50684 12.3103 2.12328 11.9721 2.80821C11.7692 3.15068 11.5663 3.49315 11.3633 3.76713C11.1604 4.0411 11.0251 4.24657 10.8899 4.38356C10.7546 4.52055 10.6193 4.58904 10.5517 4.72603C10.484 4.79452 10.3488 4.86302 10.3488 4.79452C10.2811 4.79452 10.2135 4.79452 10.2135 4.72603C10.1458 4.65753 10.0782 4.58904 10.0106 4.52054C9.94292 4.45205 9.94291 4.31506 9.87527 4.17808C9.87527 4.04109 9.87527 3.90411 9.87527 3.83561C9.87527 3.76712 9.87527 3.56165 9.87527 3.42466C9.87527 3.21918 9.87527 3.08219 9.87527 3.0137C9.87527 2.80822 9.87527 2.53425 9.87527 2.26028C9.87527 1.9863 9.87527 1.78082 9.87527 1.64383C9.87527 1.50685 9.87527 1.30137 9.87527 1.16438C9.87527 0.958903 9.87527 0.821912 9.87527 0.753419C9.87527 0.684926 9.80765 0.547943 9.80765 0.47945C9.74001 0.410957 9.67236 0.342462 9.60472 0.273969C9.53708 0.205475 9.40181 0.205477 9.33417 0.136984C8.99598 0.0684911 8.59015 0 8.11668 0C7.03446 0 6.29042 0.0684953 6.01987 0.205482C5.88459 0.273975 5.74931 0.342464 5.68167 0.47945C5.5464 0.616437 5.54639 0.684932 5.61403 0.684932C5.95223 0.753425 6.22279 0.890405 6.35806 1.09588L6.42571 1.23288C6.49335 1.30137 6.49333 1.43835 6.56097 1.64383C6.62861 1.84931 6.62862 2.05479 6.62862 2.32876C6.62862 2.73972 6.62862 3.15069 6.62862 3.42466C6.62862 3.76713 6.56097 3.9726 6.56097 4.17808C6.56097 4.38356 6.49335 4.52055 6.42571 4.58904C6.35807 4.72603 6.35806 4.79452 6.29042 4.79452C6.29042 4.79452 6.29042 4.86301 6.22278 4.86301C6.15514 4.86301 6.0875 4.93151 5.95223 4.93151C5.88459 4.93151 5.74931 4.86302 5.68167 4.79452C5.5464 4.72603 5.41112 4.58904 5.34348 4.45206C5.2082 4.31507 5.07292 4.10959 4.93764 3.83561C4.80236 3.56164 4.59944 3.28767 4.46416 2.87671L4.3289 2.60274C4.26126 2.46576 4.12598 2.19178 3.9907 1.84931C3.85542 1.50685 3.72014 1.23288 3.58486 0.890414C3.51723 0.753427 3.44959 0.684928 3.38196 0.616435H3.31431C3.31431 0.616435 3.24667 0.547948 3.17903 0.547948C3.11139 0.547948 3.04376 0.47945 2.97612 0.47945H0.541113C0.270558 0.47945 0.135282 0.547941 0.067643 0.616435L0 0.684932C0 0.684932 0 0.753423 0 0.821916C0 0.890409 4.12734e-06 0.958898 0.067643 1.09588C0.405838 1.9178 0.811669 2.73973 1.2175 3.56164C1.62334 4.31507 2.02917 5 2.29973 5.47946C2.63792 5.95891 2.90848 6.43836 3.24667 6.84932C3.58486 7.26028 3.78778 7.53425 3.85542 7.67124C3.99069 7.80822 4.05833 7.87671 4.12597 7.9452L4.3289 8.15069C4.46417 8.28767 4.66709 8.49315 4.93764 8.69863C5.2082 8.90411 5.54639 9.10959 5.88458 9.31507C6.22278 9.52055 6.62862 9.65754 7.03445 9.79453C7.50793 9.93151 7.91375 10 8.31959 9.93151H9.33417C9.53709 9.93151 9.67237 9.86302 9.80765 9.72603L9.87527 9.65753C9.87527 9.58904 9.94292 9.58904 9.94292 9.52055C9.94292 9.45206 9.94292 9.38357 9.94292 9.24658C9.94292 8.97261 9.94292 8.76713 10.0106 8.56165C10.0782 8.35617 10.0782 8.21918 10.1458 8.0822C10.2135 7.94521 10.2811 7.87671 10.3488 7.80822C10.4164 7.73973 10.484 7.67124 10.484 7.67124H10.5517C10.6869 7.60274 10.8899 7.67123 11.0251 7.80822C11.2281 7.94521 11.431 8.15069 11.5662 8.35617C11.7015 8.56165 11.9045 8.76713 12.175 9.0411C12.4456 9.31507 12.6485 9.52055 12.7838 9.58905L12.9867 9.72603C13.1219 9.79452 13.2572 9.86302 13.4601 9.93151C13.6631 10 13.7983 10 13.9336 10L16.2333 9.93151C16.4363 9.93151 16.6392 9.86302 16.7745 9.79453C16.9097 9.72604 16.9774 9.65754 16.9774 9.52055C16.9774 9.45206 16.9774 9.31507 16.9774 9.24658C16.8421 9.10959 16.8421 9.0411 16.8421 8.9726Z" fill="white"/>
</svg>
